<mxfile host="app.diagrams.net" modified="2024-05-12T03:11:58.195Z" agent="Mozilla/5.0 (Windows NT 10.0; Win64; x64; rv:125.0) Gecko/20100101 Firefox/125.0" version="24.4.0" etag="auA6ErmQwzuaj3whL3Yz" type="github">
  <diagram name="ページ1" id="tKrGTOdUDP9u8QVUB01X">
    <mxGraphModel>
      <root>
        <mxCell id="0" />
        <mxCell id="1" parent="0" />
      </root>
    </mxGraphModel>
  </diagram>
</mxfile>
